<?xml version="1.0" encoding="UTF-8"?>
<svg width="8241px" height="2051px" viewBox="0 0 8241 2051" version="1.1" xmlns="http://www.w3.org/2000/svg">
    <!-- Generator: Sketch 50.2 (55047) - http://www.bohemiancoding.com/sketch -->
    <title>Group Copy</title>
    <desc>Created with Sketch.</desc>
    <defs></defs>
    <g id="Page-1" stroke="none" stroke-width="1" fill="none" fill-rule="evenodd">
        <g id="Group-Copy" transform="translate(-4.000000, -2.000000)">
            <path d="M3564.52066,354.18606 C3577.84579,366.97683 3584.50826,383.497994 3584.50826,403.750047 C3584.50826,416.540817 3581.31028,430.397277 3574.91421,445.319842 L3101.60798,1530.93104 C3087.74985,1566.10566 3062.69898,1583.69271 3026.45463,1583.69271 C2992.34229,1583.69271 2967.29143,1566.10566 2951.30127,1530.93104 L2482.79206,459.709387 C2474.26398,437.325539 2470,418.672612 2470,403.750047 C2470,382.432096 2476.66246,365.644462 2489.98759,353.38664 C2503.31272,341.128819 2521.70113,335 2545.15335,335 C2582.46372,335 2608.04758,351.521164 2621.90572,384.563987 L3024.85562,1350.26232 L3434.20155,384.563987 C3441.66362,365.377832 3451.25757,352.320783 3462.98369,345.392449 C3474.7098,338.464115 3490.16672,335 3509.3549,335 C3532.80713,335 3551.19554,341.395289 3564.52066,354.18606 Z M4333.60522,1183.18372 C4319.74709,1196.50743 4302.15818,1203.16919 4280.83797,1203.16919 L3673.21511,1203.16919 C3684.94122,1277.78202 3718.78654,1338.00433 3774.75209,1383.83792 C3830.71763,1429.67151 3899.20777,1452.58797 3980.22456,1452.58797 C4012.20487,1452.58797 4045.51719,1446.72562 4080.16253,1435.00075 C4114.80786,1423.27587 4143.32321,1408.88647 4165.70943,1391.83211 C4180.63358,1380.10724 4198.22248,1374.24489 4218.47668,1374.24489 C4238.73088,1374.24489 4254.72079,1379.5743 4266.44691,1390.23327 C4285.63509,1406.22174 4295.22904,1424.34172 4295.22904,1444.59378 C4295.22904,1463.77993 4286.70109,1479.76815 4269.64492,1492.55893 C4233.40057,1521.33816 4188.36231,1544.78755 4134.52878,1562.90781 C4080.69526,1581.02807 4029.26103,1590.08806 3980.22456,1590.08806 C3892.81171,1590.08806 3814.46112,1571.16866 3745.17045,1533.3293 C3675.87977,1495.48994 3621.78056,1442.99527 3582.87118,1375.84373 C3543.9618,1308.69219 3524.5074,1232.48166 3524.5074,1147.20985 C3524.5074,1061.93805 3542.89581,985.461051 3579.67316,917.776558 C3616.45052,850.092065 3667.61825,797.330929 3733.17789,759.491567 C3798.73753,721.652205 3873.09063,702.732808 3956.23944,702.732808 C4038.32224,702.732808 4109.21087,720.852794 4168.90745,757.09331 C4228.60403,793.333826 4274.44178,843.963199 4306.42209,908.982948 C4338.40241,974.002697 4354.39232,1048.6144 4354.39232,1132.82031 C4354.39232,1153.07236 4347.46336,1169.86 4333.60522,1183.18372 Z M3766.75705,904.186433 C3718.25358,946.822334 3687.60624,1003.847 3674.81411,1075.26213 L4207.28363,1075.26213 C4197.68953,1003.847 4171.03967,946.822334 4127.33325,904.186433 C4083.62682,861.550532 4026.59613,840.232901 3956.23944,840.232901 C3878.42069,840.232901 3815.26052,861.550532 3766.75705,904.186433 Z M5134.66993,761.090406 C5201.29558,799.995665 5254.0623,853.289742 5292.97168,920.974235 C5331.88106,988.658728 5351.33545,1064.06985 5351.33545,1147.20985 L5351.33545,1503.75079 C5351.33545,1527.20054 5343.60699,1546.65288 5328.14984,1562.10839 C5312.69269,1577.56391 5293.2383,1585.29155 5269.78607,1585.29155 C5246.33384,1585.29155 5226.87944,1577.56391 5211.42229,1562.10839 C5195.96514,1546.65288 5188.23668,1527.20054 5188.23668,1503.75079 L5188.23668,1444.59378 C5150.92632,1490.42737 5105.62156,1526.1344 5052.32104,1551.71594 C4999.02052,1577.29748 4941.45683,1590.08806 4879.62823,1590.08806 C4802.87548,1590.08806 4733.31935,1570.90219 4670.95774,1532.52988 C4608.59614,1494.15757 4559.5604,1441.12997 4523.84905,1373.44547 C4488.1377,1305.76098 4470.2823,1230.34986 4470.2823,1147.20985 C4470.2823,1064.06985 4489.47019,988.658728 4527.84657,920.974235 C4566.22294,853.289742 4619.25616,799.995665 4686.94782,761.090406 C4754.63948,722.185146 4829.52558,702.732808 4911.60838,702.732808 C4993.69118,702.732808 5068.04428,722.185146 5134.66993,761.090406 Z M5056.31856,1407.02108 C5099.49198,1380.90659 5133.3373,1345.19956 5157.85554,1299.89891 C5182.37378,1254.59827 5194.63271,1203.70242 5194.63271,1147.20985 C5194.63271,1090.71728 5182.37378,1039.55497 5157.85554,993.721377 C5133.3373,947.887784 5099.49198,911.914282 5056.31856,885.799792 C5013.14514,859.685303 4964.9089,846.628254 4911.60838,846.628254 C4858.30786,846.628254 4810.07162,859.685303 4766.8982,885.799792 C4723.72478,911.914282 4689.61296,947.887784 4664.56171,993.721377 C4639.51047,1039.55497 4626.98504,1090.71728 4626.98504,1147.20985 C4626.98504,1203.70242 4639.51047,1254.59827 4664.56171,1299.89891 C4689.61296,1345.19956 4723.72478,1380.90659 4766.8982,1407.02108 C4810.07162,1433.13557 4858.30786,1446.19261 4911.60838,1446.19261 C4964.9089,1446.19261 5013.14514,1433.13557 5056.31856,1407.02108 Z M6723.24586,792.267752 C6780.27741,853.023911 6808.79276,937.761493 6808.79276,1046.48304 L6808.79276,1503.75079 C6808.79276,1527.20054 6801.3308,1546.65288 6786.40665,1562.10839 C6771.48251,1577.56391 6751.76161,1585.29155 6727.24337,1585.29155 C6703.79115,1585.29155 6684.33675,1577.56391 6668.8796,1562.10839 C6653.42245,1546.65288 6645.69399,1527.20054 6645.69399,1503.75079 L6645.69399,1046.48304 C6645.69399,981.463292 6629.43758,932.166271 6596.92426,898.590499 C6564.41094,865.014727 6520.97167,848.227093 6466.60514,848.227093 C6411.17261,848.227093 6365.60135,867.41296 6329.89,905.785271 C6294.17865,944.157582 6276.32325,993.188133 6276.32325,1052.87839 L6276.32325,1503.75079 C6276.32325,1527.20054 6268.86129,1546.65288 6253.93714,1562.10839 C6239.013,1577.56391 6219.2921,1585.29155 6194.77386,1585.29155 C6171.32163,1585.29155 6151.86724,1577.56391 6136.41009,1562.10839 C6120.95294,1546.65288 6113.22448,1527.20054 6113.22448,1503.75079 L6113.22448,1046.48304 C6113.22448,981.463292 6096.96806,932.166271 6064.45475,898.590499 C6031.94143,865.014727 5988.50216,848.227093 5934.13563,848.227093 C5877.63708,848.227093 5831.53283,867.41296 5795.82148,905.785271 C5760.11013,944.157582 5742.25473,993.188133 5742.25473,1052.87839 L5742.25473,1503.75079 C5742.25473,1527.20054 5734.79277,1546.65288 5719.86862,1562.10839 C5704.94448,1577.56391 5685.22358,1585.29155 5660.70534,1585.29155 C5637.25311,1585.29155 5617.79872,1577.56391 5602.34157,1562.10839 C5586.88442,1546.65288 5579.15596,1527.20054 5579.15596,1503.75079 L5579.15596,792.267752 C5579.15596,767.752109 5586.88442,748.033301 5602.34157,733.110735 C5617.79872,718.18817 5637.25311,710.726999 5660.70534,710.726999 C5684.15757,710.726999 5703.34547,717.9217 5718.26961,732.311316 C5733.19376,746.700933 5741.18872,765.62033 5742.25473,789.070076 C5769.971,761.35674 5803.01682,739.772639 5841.39319,724.317125 C5879.76957,708.861611 5921.34335,701.133969 5966.11578,701.133969 C6020.48231,701.133969 6069.25155,712.059255 6112.42497,733.910155 C6155.59839,755.761054 6191.04271,786.938089 6218.75898,827.442195 C6250.73929,788.003986 6290.71408,757.093422 6338.68454,734.709574 C6386.65501,712.325726 6439.95473,701.133969 6498.5853,701.133969 C6591.3282,701.133969 6666.2143,731.511593 6723.24586,792.267752 Z M7147.74429,1546.12001 C7110.96693,1521.07142 7082.45158,1485.89733 7062.19738,1440.59668 C7041.94319,1395.29604 7031.81624,1344.40019 7031.81624,1287.90762 L7031.81624,414.941915 C7031.81624,391.492169 7039.2782,372.306301 7054.20235,357.383736 C7069.12649,342.461171 7088.31439,335 7111.76662,335 C7135.21885,335 7154.40674,342.461171 7169.33089,357.383736 C7184.25503,372.306301 7191.717,391.492169 7191.717,414.941915 L7191.717,1287.90762 C7191.717,1327.34583 7199.17896,1359.85522 7214.1031,1385.43676 C7229.02725,1411.0183 7248.21514,1423.80888 7271.66737,1423.80888 L7311.64256,1423.80888 C7332.96277,1423.80888 7350.28518,1431.27005 7363.61031,1446.19261 C7376.93544,1461.11518 7383.5979,1480.30105 7383.5979,1503.75079 C7383.5979,1527.20054 7373.47095,1546.38641 7353.21676,1561.30897 C7332.96256,1576.23154 7306.8457,1583.69271 7274.86539,1583.69271 L7271.66737,1583.69271 C7225.82893,1583.69271 7184.52165,1571.1686 7147.74429,1546.12001 Z M7932.40736,1505.65689 L8237.01961,821.558982 C8246.55849,800.136574 8247.54607,779.574697 8239.98238,759.872701 C8232.41869,740.170705 8217.89373,725.620595 8196.46906,716.082724 C8175.04438,706.544853 8154.5113,705.487773 8134.80722,713.05066 C8115.10314,720.613548 8100.48188,735.105962 8090.943,756.52837 L7838.99708,1322.34829 L7549.22006,753.689071 C7538.57297,732.795195 7523.21319,719.087762 7503.14026,712.566362 C7483.06733,706.044962 7462.58313,708.107211 7441.68704,718.753173 C7420.79095,729.399135 7407.08207,744.757288 7400.55998,764.828094 C7394.03789,784.8989 7396.10036,805.380934 7406.74744,826.27481 L7755.30946,1510.29387 L7642.92754,1762.68108 C7626.88487,1798.70967 7606.84387,1825.37374 7582.80394,1842.67409 C7558.764,1859.97444 7536.03204,1863.85562 7514.60736,1854.31774 L7478.08821,1838.06009 C7458.61123,1829.3893 7439.75137,1829.16051 7421.50806,1837.3737 C7403.26475,1845.5869 7389.37387,1860.40448 7379.83499,1881.82689 C7370.29611,1903.2493 7371.74311,1924.89502 7384.17604,1946.76472 C7396.60898,1968.63441 7417.43286,1986.07209 7446.64833,1999.07828 L7449.56986,2000.37889 C7491.44537,2019.02109 7534.276,2024.37916 7578.06305,2016.45325 C7621.85009,2008.52733 7662.20827,1987.99121 7699.13878,1954.84427 C7736.06929,1921.69732 7766.02411,1879.32022 7789.00414,1827.71169 L7854.0207,1681.69756 L7854.0207,1681.69756"
                  id="Veamly_Color" fill="#FFFFFF"></path>
            <g id="Logo_Color">
                <g id="Dots">
                    <circle id="Oval-2" fill="#A7458D" cx="1030.28484" cy="220.328995" r="218.011434"></circle>
                    <circle id="Oval-2" fill="#FBB64D" cx="1030.28484" cy="1835.66472" r="217.203939"></circle>
                    <circle id="Oval-2" fill="#D45153" cx="223.522916" cy="1028.59818" r="219.426725"></circle>
                    <circle id="Oval-2" fill="#49BEA4" cx="1837.04677" cy="1028.59818" r="218.772868"></circle>
                </g>
                <g id="Arcs"
                   transform="translate(1033.239696, 1041.191515) rotate(-360.000000) translate(-1033.239696, -1041.191515) translate(370.739696, 376.191515)"
                   stroke-width="140">
                    <path d="M334.511033,0.919265293 C189.982678,72.748536 72.4933087,190.824013 1.40499637,335.783625"
                          id="Oval" stroke="#D45153"></path>
                    <path d="M1320.64656,0.919265293 C1176.11821,72.748536 1058.62884,190.824013 987.540526,335.783625"
                          id="Oval" stroke="#A7458D"
                          transform="translate(1154.093545, 168.351445) rotate(-270.000000) translate(-1154.093545, -168.351445) "></path>
                    <path d="M334.511033,993.587789 C189.982678,1065.41706 72.4933087,1183.49254 1.40499637,1328.45215"
                          id="Oval" stroke="#FBB64D"
                          transform="translate(167.958015, 1161.019969) scale(1, -1) translate(-167.958015, -1161.019969) "></path>
                    <path d="M1320.64656,993.587789 C1176.11821,1065.41706 1058.62884,1183.49254 987.540526,1328.45215"
                          id="Oval" stroke="#49BEA4"
                          transform="translate(1154.093545, 1161.019969) scale(1, -1) rotate(-270.000000) translate(-1154.093545, -1161.019969) "></path>
                </g>
            </g>
        </g>
    </g>
</svg>